<?xml version="1.0" standalone="no"?>
<!DOCTYPE svg PUBLIC "-//W3C//DTD SVG 20010904//EN"
 "http://www.w3.org/TR/2001/REC-SVG-20010904/DTD/svg10.dtd">
<svg version="1.0" xmlns="http://www.w3.org/2000/svg"
 width="1516.000000pt" height="427.000000pt" viewBox="0 0 1516.000000 427.000000"
 preserveAspectRatio="xMidYMid meet">

<g transform="translate(0.000000,427.000000) scale(0.100000,-0.100000)"
fill="#f1ffd0" stroke="none">
<path d="M3887 4260 c-128 -24 -204 -175 -148 -295 21 -45 43 -67 119 -117
l52 -35 -103 -6 c-119 -8 -210 -33 -312 -85 -91 -48 -238 -191 -283 -278 -61
-118 -62 -126 -62 -805 0 -581 1 -620 20 -693 28 -111 63 -170 155 -262 64
-64 99 -90 166 -123 119 -58 182 -72 347 -78 l142 -6 -24 54 c-47 104 -41 200
18 318 l25 49 -137 4 c-129 3 -140 5 -185 31 -90 53 -87 24 -87 699 0 390 4
596 11 615 16 42 68 93 124 119 40 19 67 24 134 24 l84 0 -59 -38 c-97 -63
-134 -122 -134 -212 1 -71 60 -158 127 -186 41 -18 124 -18 166 0 43 18 707
457 729 482 28 33 48 90 48 142 0 58 -45 154 -94 200 -30 28 -651 439 -705
466 -36 19 -89 25 -134 16z"/>
<path d="M5030 3807 c0 -2 15 -36 32 -73 27 -56 33 -84 36 -151 4 -71 1 -89
-21 -137 l-26 -56 151 0 c132 0 157 -3 194 -20 57 -28 120 -99 134 -149 7 -28
10 -218 8 -609 -3 -553 -4 -568 -24 -607 -43 -82 -111 -107 -280 -103 l-117 3
66 44 c35 24 76 62 90 84 108 166 -58 380 -243 313 -20 -6 -193 -115 -384
-241 -325 -214 -351 -233 -384 -284 -44 -69 -64 -134 -56 -180 9 -47 36 -101
66 -127 54 -50 703 -465 742 -476 160 -43 304 113 252 270 -18 53 -58 97 -131
142 l-40 25 165 6 c190 7 258 22 370 80 170 88 281 221 325 387 14 54 15 143
13 715 -3 743 2 697 -93 837 -61 90 -157 173 -263 228 -120 63 -171 73 -389
79 -106 3 -193 3 -193 0z"/>
<path d="M12985 3800 c-79 -12 -134 -29 -205 -65 -177 -89 -300 -227 -350
-392 -20 -66 -22 -90 -18 -250 4 -164 6 -183 31 -248 69 -177 235 -320 442
-381 54 -16 135 -18 865 -23 791 -6 806 -6 850 -27 86 -40 109 -90 110 -242 0
-118 -14 -157 -75 -210 -81 -72 7 -67 -1172 -70 l-1063 -3 0 -204 0 -205 1065
0 c1189 0 1150 -2 1300 69 175 83 307 226 358 386 19 61 22 92 22 240 -1 159
-3 175 -28 248 -15 43 -42 102 -60 130 -49 77 -165 178 -249 220 -149 74 -103
70 -998 77 -742 5 -808 7 -845 23 -47 21 -81 52 -102 91 -20 38 -29 199 -14
254 13 48 65 110 119 144 l37 23 1075 5 1075 5 0 205 0 205 -1060 1 c-583 1
-1082 -2 -1110 -6z"/>
<path d="M80 2640 l0 -1160 215 0 215 0 0 383 c0 248 4 396 11 422 16 56 76
111 143 130 46 14 152 15 832 13 l779 -3 55 -31 c36 -20 63 -45 77 -70 22 -39
23 -43 23 -441 l0 -403 220 0 220 0 0 1160 0 1160 -220 0 -220 0 0 -399 c0
-259 -4 -410 -11 -428 -15 -40 -48 -73 -94 -94 -38 -18 -84 -19 -844 -19 -601
0 -814 3 -844 12 -55 17 -101 65 -116 121 -7 31 -11 173 -11 426 l0 381 -215
0 -215 0 0 -1160z"/>
<path d="M6220 2640 l0 -1161 1153 4 c1074 3 1156 4 1212 21 193 57 347 183
421 341 48 103 57 170 52 353 -7 206 -31 281 -134 408 -33 41 -33 42 -14 59
33 29 98 138 122 200 20 54 22 78 23 255 0 179 -2 200 -23 260 -54 150 -164
271 -317 346 -156 77 -92 74 -1362 74 l-1133 0 0 -1160z m2305 720 c79 -41 95
-82 95 -243 0 -158 -14 -192 -94 -232 l-50 -25 -913 0 -913 0 0 258 c0 142 3
262 7 266 4 3 414 5 913 4 l906 -3 49 -25z m-51 -944 c26 -8 62 -26 81 -41 57
-43 65 -68 65 -212 0 -114 -3 -132 -23 -168 -14 -24 -40 -50 -67 -65 l-45 -25
-917 -3 -918 -2 0 258 c0 142 3 262 7 265 3 4 403 7 888 7 732 0 890 -2 929
-14z"/>
<path d="M9310 2640 l0 -1160 1113 0 c1186 1 1191 1 1320 50 82 31 197 111
257 178 113 126 156 273 145 495 -9 190 -41 287 -127 390 l-41 49 22 26 c51
64 96 142 120 207 23 64 25 84 26 240 0 137 -4 182 -18 230 -66 216 -241 377
-471 435 -77 19 -114 20 -1213 20 l-1133 0 0 -1160z m2295 724 c84 -45 104
-93 104 -249 1 -118 -14 -170 -57 -208 -52 -46 -44 -46 -1004 -47 l-908 0 0
265 0 266 913 -3 c911 -3 912 -3 952 -24z m-47 -949 c60 -18 119 -66 138 -112
17 -39 19 -211 3 -266 -5 -21 -24 -53 -40 -72 -59 -67 -31 -65 -1026 -65
l-893 0 0 265 0 265 883 0 c767 0 890 -2 935 -15z"/>
<path d="M93 616 l-28 -24 -3 -185 -3 -184 -25 -11 c-23 -11 -24 -16 -24 -107
l0 -95 49 0 50 0 3 53 3 52 158 3 157 3 0 -56 0 -55 55 0 55 0 0 89 c0 92 -11
121 -46 121 -12 0 -14 31 -14 179 0 99 -3 187 -6 196 -14 35 -58 45 -208 45
-139 0 -146 -1 -173 -24z m287 -236 l0 -160 -105 0 -105 0 0 160 0 160 105 0
105 0 0 -160z"/>
<path d="M1480 627 c-43 -22 -52 -71 -48 -275 l3 -184 28 -24 c28 -23 32 -24
213 -24 l184 0 0 50 0 50 -160 0 -160 0 0 55 0 55 129 0 c122 0 132 1 157 23
25 22 28 32 32 108 5 100 -12 153 -53 169 -39 15 -295 12 -325 -3z m270 -142
l0 -55 -105 0 -105 0 0 55 0 55 105 0 105 0 0 -55z"/>
<path d="M2889 611 l-29 -29 0 -181 0 -181 -55 0 -55 0 0 -50 0 -50 79 0 c63
0 84 4 102 19 23 19 24 25 29 208 l5 188 105 0 105 0 3 -207 2 -208 50 0 50 0
0 231 0 231 -29 29 -29 29 -152 0 -152 0 -29 -29z"/>
<path d="M4180 590 l0 -49 158 -3 157 -3 3 -52 3 -53 -131 0 -132 0 -29 -29
c-28 -29 -29 -32 -29 -131 0 -94 2 -103 25 -125 24 -25 26 -25 210 -25 l185 0
0 231 0 231 -29 29 -29 29 -181 0 -181 0 0 -50z m318 -317 l3 -53 -110 0 -111
0 0 48 c0 27 3 52 7 56 4 4 52 5 107 4 l101 -3 3 -52z"/>
<path d="M5583 616 l-28 -24 -3 -193 c-4 -209 -1 -230 28 -259 18 -18 34 -20
205 -20 l185 0 0 50 0 50 -161 0 -160 0 3 53 3 52 138 5 c176 6 177 7 177 146
0 103 -10 136 -47 153 -14 6 -84 11 -168 11 -138 0 -145 -1 -172 -24z m287
-131 l0 -56 -107 3 -108 3 -3 39 c-6 65 -4 66 113 66 l105 0 0 -55z"/>
<path d="M6899 611 l-29 -29 0 -231 0 -231 50 0 50 0 2 208 3 207 53 3 52 3 0
-210 0 -211 55 0 55 0 0 210 0 210 50 0 50 0 0 -210 0 -210 56 0 55 0 -3 236
-3 236 -28 24 c-24 21 -38 24 -105 24 -67 0 -79 -3 -102 -25 l-26 -25 -24 25
c-21 23 -31 25 -103 25 -74 0 -80 -2 -108 -29z"/>
<path d="M8930 526 c0 -63 5 -127 10 -142 19 -49 35 -53 178 -54 l132 0 0
-105 0 -105 50 0 50 0 0 260 0 260 -50 0 -50 0 0 -105 0 -105 -105 0 -105 0 0
105 0 105 -55 0 -55 0 0 -114z"/>
<path d="M10352 630 c-45 -19 -54 -65 -50 -272 l3 -190 28 -24 c28 -23 32 -24
213 -24 l184 0 0 50 0 50 -160 0 -160 0 0 55 0 55 128 0 c145 0 165 7 182 68
13 49 12 138 -3 182 -7 19 -23 40 -37 47 -30 15 -292 17 -328 3z m268 -145 l0
-55 -105 0 -105 0 0 55 0 55 105 0 105 0 0 -55z"/>
<path d="M11680 590 l0 -50 75 0 75 0 0 -210 0 -210 55 0 55 0 0 210 0 210 80
0 80 0 0 50 0 50 -210 0 -210 0 0 -50z"/>
<path d="M13050 380 l0 -260 50 0 49 0 3 102 3 103 49 3 c48 3 51 2 108 -55
55 -54 58 -60 58 -105 l0 -48 50 0 50 0 0 77 0 77 -52 53 -52 53 52 53 52 53
0 77 0 77 -50 0 -50 0 0 -47 c0 -44 -4 -51 -57 -105 -55 -56 -59 -58 -110 -58
l-53 0 0 105 0 105 -50 0 -50 0 0 -260z"/>
<path d="M14449 611 l-29 -29 0 -197 c0 -204 7 -244 45 -259 9 -3 86 -6 171
-6 216 0 204 -15 204 249 0 125 -4 209 -11 224 -18 40 -50 47 -205 47 l-146 0
-29 -29z m291 -231 l0 -160 -110 0 -110 0 0 153 c0 85 3 157 7 160 3 4 53 7
110 7 l103 0 0 -160z"/>
</g>
</svg>
